<svg width="14" height="15" viewBox="0 0 14 15" fill="none" xmlns="http://www.w3.org/2000/svg">
<path d="M1.1123 9.91442H3.09308C3.4433 9.91442 3.77918 10.0535 4.02683 10.3012C4.27447 10.5488 4.4136 10.8847 4.4136 11.2349V13.2157M4.4136 1.33105V3.31183C4.4136 3.66205 4.27447 3.99793 4.02683 4.24558C3.77918 4.49322 3.4433 4.63235 3.09308 4.63235H1.1123L4.4136 1.33105ZM12.997 4.63235H11.0162C10.666 4.63235 10.3301 4.49322 10.0824 4.24558C9.8348 3.99793 9.69567 3.66205 9.69567 3.31183V1.33105L12.997 4.63235ZM9.69567 13.2157V11.2349C9.69567 10.8847 9.8348 10.5488 10.0824 10.3012C10.3301 10.0535 10.666 9.91442 11.0162 9.91442H12.997L9.69567 13.2157Z" stroke="#757575" stroke-width="1.76069" stroke-linecap="round" stroke-linejoin="round"/>
</svg>
