<svg width="19" height="19" viewBox="0 0 19 19" fill="none" xmlns="http://www.w3.org/2000/svg">
<g clip-path="url(#clip0_140_4422)">
<path d="M16.4081 8.95956L9.5156 15.8521C8.67122 16.6964 7.52599 17.1708 6.33185 17.1708C5.13771 17.1708 3.99248 16.6964 3.1481 15.8521C2.30372 15.0077 1.82935 13.8624 1.82935 12.6683C1.82935 11.4742 2.30372 10.3289 3.1481 9.48456L10.0406 2.59206C10.6035 2.02914 11.367 1.71289 12.1631 1.71289C12.9592 1.71289 13.7227 2.02914 14.2856 2.59206C14.8485 3.15498 15.1648 3.91847 15.1648 4.71456C15.1648 5.51065 14.8485 6.27414 14.2856 6.83706L7.3856 13.7296C7.10414 14.011 6.72239 14.1691 6.32435 14.1691C5.9263 14.1691 5.54456 14.011 5.2631 13.7296C4.98164 13.4481 4.82351 13.0664 4.82351 12.6683C4.82351 12.2703 4.98164 11.8885 5.2631 11.6071L11.6306 5.24706" stroke="#DFE0EB" stroke-width="2" stroke-linecap="round" stroke-linejoin="round"/>
</g>
<defs>
<clipPath id="clip0_140_4422">
<rect width="18" height="18" fill="white" transform="translate(0.328125 0.671875)"/>
</clipPath>
</defs>
</svg>
