<svg width="19" height="19" viewBox="0 0 19 19" fill="none" xmlns="http://www.w3.org/2000/svg">
<g clip-path="url(#clip0_140_4401)">
<path d="M11.9594 4.29688C12.692 4.4398 13.3652 4.79807 13.893 5.32583C14.4208 5.85359 14.779 6.52682 14.9219 7.25937L11.9594 4.29688ZM11.9594 1.29688C13.4814 1.46595 14.9006 2.14751 15.9841 3.22963C17.0676 4.31176 17.751 5.73013 17.9219 7.25187L11.9594 1.29688ZM17.1719 13.2369V15.4869C17.1728 15.6958 17.13 15.9025 17.0463 16.0939C16.9627 16.2853 16.8399 16.4571 16.686 16.5983C16.5321 16.7395 16.3504 16.847 16.1525 16.9139C15.9546 16.9808 15.745 17.0057 15.5369 16.9869C13.2291 16.7361 11.0122 15.9475 9.06445 14.6844C7.25232 13.5329 5.71595 11.9965 4.56445 10.1844C3.29693 8.22778 2.50813 6.00012 2.26195 3.68187C2.2432 3.47448 2.26785 3.26545 2.33432 3.06809C2.40079 2.87074 2.50763 2.68939 2.64802 2.53559C2.78842 2.38179 2.9593 2.25891 3.14979 2.17477C3.34028 2.09063 3.5462 2.04707 3.75445 2.04688H6.00445C6.36843 2.04329 6.72129 2.17218 6.99727 2.40952C7.27325 2.64687 7.4535 2.97646 7.50445 3.33688C7.59941 4.05692 7.77553 4.76392 8.02945 5.44438C8.13035 5.71282 8.15219 6.00456 8.09238 6.28504C8.03256 6.56551 7.89359 6.82296 7.69195 7.02688L6.73945 7.97937C7.80711 9.85703 9.36179 11.4117 11.2394 12.4794L12.1919 11.5269C12.3959 11.3252 12.6533 11.1863 12.9338 11.1264C13.2143 11.0666 13.506 11.0885 13.7744 11.1894C14.4549 11.4433 15.1619 11.6194 15.8819 11.7144C16.2463 11.7658 16.579 11.9493 16.8168 12.23C17.0547 12.5107 17.1811 12.8691 17.1719 13.2369Z" stroke="white" stroke-width="2" stroke-linecap="round" stroke-linejoin="round"/>
</g>
<defs>
<clipPath id="clip0_140_4401">
<rect width="18" height="18" fill="white" transform="translate(0.671875 0.546875)"/>
</clipPath>
</defs>
</svg>
