<svg width="16" height="17" viewBox="0 0 16 17" xmlns="http://www.w3.org/2000/svg">
    <path fill="currentColor" stroke="currentColor" d="M14.1609 8.05523C14.1634 9.01314 13.9396 9.95809 13.5077 10.8131C12.9956 11.8377 12.2084 12.6995 11.2342 13.302C10.26 13.9044 9.13733 14.2238 7.9919 14.2242C7.034 14.2267 6.08904 14.0029 5.23401 13.571L1.09717 14.95L2.47612 10.8131C2.04424 9.95809 1.82043 9.01314 1.82293 8.05523C1.82337 6.9098 2.14271 5.78711 2.74517 4.81292C3.34763 3.83873 4.20942 3.05151 5.23401 2.53944C6.08904 2.10756 7.034 1.88375 7.9919 1.88625H8.35479C9.86753 1.96971 11.2963 2.60821 12.3676 3.67951C13.4389 4.7508 14.0774 6.17961 14.1609 7.69235V8.05523Z" stroke-width="2.17729" stroke-linecap="round" stroke-linejoin="round" />
</svg>