<svg width="16" height="16" viewBox="0 0 16 16" xmlns="http://www.w3.org/2000/svg">
    <path d="M1.25 11H3.5C3.89782 11 4.27936 11.158 4.56066 11.4393C4.84196 11.7206 5 12.1022 5 12.5V14.75M5 1.25V3.5C5 3.89782 4.84196 4.27936 4.56066 4.56066C4.27936 4.84196 3.89782 5 3.5 5H1.25L5 1.25ZM14.75 5H12.5C12.1022 5 11.7206 4.84196 11.4393 4.56066C11.158 4.27936 11 3.89782 11 3.5V1.25L14.75 5ZM11 14.75V12.5C11 12.1022 11.158 11.7206 11.4393 11.4393C11.7206 11.158 12.1022 11 12.5 11H14.75L11 14.75Z" stroke="currentColor" stroke-width="2" stroke-linecap="round" stroke-linejoin="round" fill="currentColor" />
</svg>