<svg width="18" height="19" viewBox="0 0 18 19" fill="none" xmlns="http://www.w3.org/2000/svg">
<g clip-path="url(#clip0_143_5089)">
<path d="M11.4276 4.33762C12.1365 4.47592 12.7879 4.82261 13.2987 5.33332C13.8094 5.84402 14.156 6.4955 14.2943 7.20438L11.4276 4.33762ZM11.4276 1.43457C12.9004 1.59818 14.2737 2.25771 15.3222 3.30486C16.3707 4.35202 17.0319 5.72456 17.1974 7.19712L11.4276 1.43457ZM16.4716 12.9887V15.166C16.4725 15.3681 16.4311 15.5682 16.3501 15.7534C16.2691 15.9386 16.1503 16.1048 16.0014 16.2415C15.8525 16.3781 15.6766 16.4821 15.4851 16.5469C15.2937 16.6117 15.0908 16.6357 14.8895 16.6175C12.6562 16.3748 10.511 15.6117 8.62615 14.3894C6.87258 13.2751 5.38587 11.7884 4.27158 10.0348C3.04502 8.14148 2.28171 5.98582 2.04349 3.74249C2.02535 3.5418 2.0492 3.33952 2.11352 3.14855C2.17785 2.95757 2.28123 2.78208 2.41709 2.63325C2.55295 2.48442 2.71831 2.36551 2.90264 2.28409C3.08697 2.20267 3.28624 2.16052 3.48775 2.16033H5.66504C6.01726 2.15687 6.35872 2.28159 6.62578 2.51126C6.89283 2.74093 7.06727 3.05988 7.11656 3.40864C7.20846 4.10542 7.37889 4.78957 7.6246 5.44803C7.72224 5.7078 7.74338 5.99012 7.68549 6.26153C7.62761 6.53294 7.49313 6.78206 7.298 6.97939L6.37629 7.90111C7.40945 9.71809 8.91388 11.2225 10.7309 12.2557L11.6526 11.334C11.8499 11.1388 12.099 11.0044 12.3704 10.9465C12.6419 10.8886 12.9242 10.9097 13.1839 11.0074C13.8424 11.2531 14.5265 11.4235 15.2233 11.5154C15.5759 11.5651 15.8978 11.7427 16.128 12.0144C16.3582 12.286 16.4805 12.6328 16.4716 12.9887Z" stroke="white" stroke-width="2.17729" stroke-linecap="round" stroke-linejoin="round"/>
</g>
<defs>
<clipPath id="clip0_143_5089">
<rect width="17.4183" height="17.4183" fill="white" transform="translate(0.504395 0.708984)"/>
</clipPath>
</defs>
</svg>
